<?xml version="1.0" standalone="no"?><!-- Generator: Gravit.io --><svg xmlns="http://www.w3.org/2000/svg" xmlns:xlink="http://www.w3.org/1999/xlink" style="isolation:isolate" viewBox="0 0 48 48" width="48" height="48"><defs><clipPath id="_clipPath_Gb2qSLfAzaiCBirNVtoYb2JzObSVwAGA"><rect width="48" height="48"/></clipPath></defs><g clip-path="url(#_clipPath_Gb2qSLfAzaiCBirNVtoYb2JzObSVwAGA)"><g style="isolation:isolate"><circle vector-effect="non-scaling-stroke" cx="24" cy="24" r="22.000000000000007" fill="rgb(255,255,255)"/><defs><filter id="YDevQbMkNCmEl0ZkxyTlNqLOd5duFeDE" x="-200%" y="-200%" width="400%" height="400%" filterUnits="objectBoundingBox" color-interpolation-filters="sRGB"><feOffset xmlns="http://www.w3.org/2000/svg" in="SourceGraphic" dx="0" dy="0.2"/><feGaussianBlur xmlns="http://www.w3.org/2000/svg" stdDeviation="0.42936090628390283" result="pf_100_offsetBlur"/><feComposite xmlns="http://www.w3.org/2000/svg" in="SourceGraphic" in2="pf_100_offsetBlur" result="pf_100_inverse" operator="out"/><feFlood xmlns="http://www.w3.org/2000/svg" flood-color="#000000" flood-opacity="0.35" result="pf_100_color"/><feComposite xmlns="http://www.w3.org/2000/svg" in="pf_100_color" in2="pf_100_inverse" operator="in" result="pf_100_shadow"/><feComposite xmlns="http://www.w3.org/2000/svg" in="pf_100_shadow" in2="SourceGraphic" operator="over"/></filter></defs><g filter="url(#YDevQbMkNCmEl0ZkxyTlNqLOd5duFeDE)"><linearGradient id="_lgradient_1" x1="0.9473684210526312" y1="0.9753289473684208" x2="0.15043859649122737" y2="0.052302631578947656" gradientTransform="matrix(38,0,0,38,5,5)" gradientUnits="userSpaceOnUse"><stop offset="0%" stop-opacity="1" style="stop-color:rgb(255,0,0)"/><stop offset="34.34782608695652%" stop-opacity="1" style="stop-color:rgb(255,86,0)"/><stop offset="68.26086956521739%" stop-opacity="1" style="stop-color:rgb(255,159,0)"/><stop offset="97.82608695652173%" stop-opacity="1" style="stop-color:rgb(255,221,0)"/></linearGradient><circle vector-effect="non-scaling-stroke" cx="24.000000000000004" cy="24.000000000000004" r="19.000000000000004" fill="url(#_lgradient_1)"/></g></g><defs><filter id="aooOEY7qFpjVXiqFXhhHqusqb1eP0hRI" x="-200%" y="-200%" width="400%" height="400%" filterUnits="objectBoundingBox" color-interpolation-filters="sRGB"><feGaussianBlur xmlns="http://www.w3.org/2000/svg" in="SourceGraphic" stdDeviation="0.42936090628390283"/><feOffset xmlns="http://www.w3.org/2000/svg" dx="0" dy="0.2" result="pf_100_offsetBlur"/><feFlood xmlns="http://www.w3.org/2000/svg" flood-color="#000000" flood-opacity="0.35"/><feComposite xmlns="http://www.w3.org/2000/svg" in2="pf_100_offsetBlur" operator="in" result="pf_100_dropShadow"/><feBlend xmlns="http://www.w3.org/2000/svg" in="SourceGraphic" in2="pf_100_dropShadow" mode="normal"/></filter></defs><g filter="url(#aooOEY7qFpjVXiqFXhhHqusqb1eP0hRI)"><path d=" M 20.295 18.59 L 20.295 17 L 20.295 17 L 22.705 17 L 24.295 18.59 L 24.295 17 L 24.295 17 L 26.705 17 L 33.705 24 L 26.705 31 L 24.295 31 L 24.295 29.41 L 24.295 29.41 L 22.705 31 L 20.295 31 L 20.295 29.41 L 18.705 31 L 16.295 31 L 16.295 17 L 16.295 17 L 18.705 17 L 20.295 18.59 Z  M 20.295 21.41 L 20.295 26.59 L 18.295 28.59 L 18.295 19.41 L 18.295 19.41 L 20.295 21.41 Z  M 24.295 25.41 L 24.295 26.59 L 24.295 26.59 L 22.295 28.59 L 22.295 27.41 L 24.295 25.41 Z  M 24.295 22.59 L 24.295 21.41 L 22.295 19.41 L 22.295 19.41 L 22.295 20.59 L 24.295 22.59 Z  M 22.295 23.41 L 22.295 24.59 L 22.885 24 L 22.295 23.41 Z  M 26.295 27.41 L 26.295 28.59 L 30.885 24 L 26.295 19.41 L 26.295 19.41 L 26.295 20.59 L 29.705 24 L 26.295 27.41 L 26.295 27.41 Z  M 26.295 24.59 L 26.295 23.41 L 26.885 24 L 26.295 24.59 L 26.295 24.59 Z " fill-rule="evenodd" fill="rgb(255,255,255)"/></g></g></svg>